<svg xmlns="http://www.w3.org/2000/svg" xmlns:xlink="http://www.w3.org/1999/xlink" width="500" zoomAndPan="magnify" viewBox="0 0 375 374.999991" height="500" preserveAspectRatio="xMidYMid meet" version="1.0"><defs><g/><clipPath id="85a8789881"><path d="M 54.480469 158 L 157.980469 158 L 157.980469 250.808594 L 54.480469 250.808594 Z M 54.480469 158 " clip-rule="nonzero"/></clipPath><clipPath id="7ed9b4d7e0"><path d="M 74.773438 166.113281 L 86.628906 166.113281 L 86.628906 186.15625 L 74.773438 186.15625 Z M 74.773438 166.113281 " clip-rule="nonzero"/></clipPath><clipPath id="8695095650"><path d="M 78.164062 167.726562 C 79.292969 176.257812 81.546875 179.617188 82.777344 181.429688 C 83.496094 182.515625 85.035156 183.394531 84.832031 183.808594 C 84.675781 184.21875 82.777344 184.53125 82.007812 183.910156 C 80.367188 182.667969 78.828125 174.191406 78.984375 172.328125 C 79.035156 171.707031 79.238281 171.449219 79.496094 171.140625 C 79.804688 170.882812 80.265625 170.621094 80.675781 170.621094 C 81.242188 170.675781 82.472656 171.347656 82.417969 171.707031 C 82.417969 172.226562 79.496094 173.464844 79.085938 173.207031 C 78.882812 173.105469 78.828125 172.691406 78.933594 172.378906 C 79.035156 171.863281 79.703125 170.933594 80.214844 170.726562 C 80.675781 170.570312 81.394531 170.675781 81.855469 171.035156 C 82.625 171.707031 83.1875 173.929688 83.34375 175.222656 C 83.496094 176.207031 83.652344 177.449219 83.242188 177.964844 C 82.933594 178.429688 82.164062 178.6875 81.703125 178.636719 C 81.292969 178.636719 80.933594 178.53125 80.574219 178.121094 C 79.652344 177.136719 77.703125 172.640625 77.804688 171.140625 C 77.855469 170.3125 78.417969 169.640625 78.828125 169.382812 C 79.1875 169.175781 79.753906 169.175781 80.113281 169.277344 C 80.472656 169.433594 80.828125 169.589844 81.136719 170.105469 C 81.90625 171.554688 81.394531 179.207031 82.417969 180.445312 C 82.828125 180.964844 83.546875 180.652344 83.90625 180.964844 C 84.265625 181.222656 84.574219 181.582031 84.625 182.050781 C 84.675781 182.566406 84.316406 183.601562 83.855469 183.910156 C 83.445312 184.21875 82.625 184.324219 82.214844 184.066406 C 81.652344 183.808594 81.34375 182.773438 81.136719 181.84375 C 80.882812 180.601562 80.828125 178.378906 81.136719 177.292969 C 81.394531 176.515625 81.804688 175.792969 82.316406 175.585938 C 82.828125 175.378906 83.703125 175.585938 84.265625 176.101562 C 85.242188 176.929688 86.523438 180.1875 86.472656 181.480469 C 86.417969 182.253906 85.957031 182.980469 85.546875 183.289062 C 85.1875 183.546875 84.675781 183.546875 84.265625 183.445312 C 83.90625 183.339844 83.496094 183.132812 83.242188 182.722656 C 82.726562 181.945312 82.523438 179.722656 82.417969 178.636719 C 82.367188 177.914062 82.316406 177.34375 82.472656 176.828125 C 82.625 176.414062 82.828125 176 83.1875 175.792969 C 83.597656 175.535156 84.367188 175.429688 84.832031 175.585938 C 85.242188 175.6875 85.546875 175.949219 85.804688 176.414062 C 86.214844 177.242188 86.574219 179.515625 86.316406 180.550781 C 86.164062 181.273438 85.652344 181.996094 85.1875 182.253906 C 84.832031 182.460938 84.265625 182.410156 83.90625 182.253906 C 83.546875 182.152344 83.1875 181.894531 82.933594 181.429688 C 82.523438 180.496094 82.367188 177.1875 82.828125 176.101562 C 83.085938 175.484375 83.597656 175.070312 84.0625 174.914062 C 84.523438 174.808594 85.34375 174.964844 85.703125 175.277344 C 86.113281 175.6875 86.417969 176.929688 86.164062 177.449219 C 85.90625 177.964844 84.832031 178.480469 84.265625 178.480469 C 83.753906 178.429688 83.136719 177.859375 82.882812 177.449219 C 82.726562 177.085938 82.675781 176.671875 82.777344 176.308594 C 82.933594 175.84375 83.394531 175.121094 83.855469 175.015625 C 84.417969 174.808594 85.496094 175.015625 85.957031 175.585938 C 86.675781 176.464844 86.726562 179.824219 86.265625 180.964844 C 86.007812 181.6875 85.292969 182.203125 84.777344 182.359375 C 84.367188 182.460938 83.855469 182.308594 83.546875 182.101562 C 83.1875 181.84375 82.984375 181.53125 82.777344 181.015625 C 82.472656 180.136719 82.214844 177.757812 82.472656 176.828125 C 82.625 176.308594 82.882812 176 83.1875 175.792969 C 83.496094 175.535156 84.007812 175.378906 84.417969 175.484375 C 84.933594 175.585938 85.597656 176.15625 85.957031 176.828125 C 86.523438 177.914062 86.832031 180.757812 86.472656 181.894531 C 86.265625 182.617188 85.703125 183.289062 85.136719 183.445312 C 84.625 183.601562 83.804688 183.289062 83.242188 182.722656 C 82.316406 181.789062 81.136719 178.429688 81.136719 177.292969 C 81.136719 176.722656 81.34375 176.414062 81.597656 176.101562 C 81.855469 175.792969 82.316406 175.535156 82.726562 175.484375 C 83.136719 175.429688 83.652344 175.585938 83.957031 175.792969 C 84.265625 176.050781 84.523438 176.308594 84.675781 176.878906 C 84.984375 177.914062 85.085938 182.152344 84.675781 182.253906 C 84.472656 182.359375 83.496094 180.757812 83.546875 180.757812 C 83.597656 180.703125 84.316406 181.222656 84.472656 181.636719 C 84.675781 182.050781 84.726562 182.875 84.417969 183.289062 C 84.164062 183.753906 83.292969 184.21875 82.625 184.21875 C 81.753906 184.167969 80.316406 183.289062 79.703125 182.667969 C 79.238281 182.152344 79.136719 181.738281 78.882812 180.859375 C 78.367188 178.945312 77.652344 172.792969 77.804688 171.140625 C 77.855469 170.519531 77.90625 170.207031 78.164062 169.898438 C 78.472656 169.535156 79.1875 169.175781 79.703125 169.226562 C 80.164062 169.226562 80.675781 169.535156 81.136719 170.105469 C 82.0625 171.191406 83.597656 175.429688 83.652344 176.773438 C 83.652344 177.34375 83.496094 177.652344 83.242188 177.964844 C 82.984375 178.273438 82.523438 178.585938 82.164062 178.636719 C 81.753906 178.6875 81.242188 178.636719 80.882812 178.378906 C 80.523438 178.121094 80.265625 177.652344 80.007812 177.035156 C 79.546875 175.894531 78.625 173 79.035156 171.914062 C 79.292969 171.242188 80.0625 170.675781 80.625 170.675781 C 81.1875 170.621094 82.417969 171.398438 82.417969 171.761719 C 82.367188 172.226562 79.546875 173.464844 79.136719 173.207031 C 78.882812 173.050781 78.933594 172.277344 79.035156 171.914062 C 79.1875 171.5 79.496094 171.089844 79.855469 170.882812 C 80.214844 170.675781 80.726562 170.570312 81.136719 170.675781 C 81.496094 170.726562 81.855469 170.828125 82.214844 171.347656 C 83.34375 172.949219 85.445312 182.050781 85.34375 184.273438 C 85.34375 185.097656 85.292969 185.667969 84.882812 185.925781 C 84.316406 186.289062 82.933594 186.132812 82.0625 185.667969 C 80.882812 184.996094 79.804688 182.980469 78.882812 181.429688 C 77.855469 179.773438 76.828125 177.757812 76.164062 176.101562 C 75.597656 174.757812 75.085938 173.671875 74.933594 172.277344 C 74.726562 170.570312 74.675781 167.46875 75.394531 166.640625 C 75.804688 166.175781 76.675781 166.019531 77.136719 166.226562 C 77.597656 166.382812 78.164062 167.726562 78.164062 167.726562 " clip-rule="nonzero"/></clipPath><clipPath id="a6d847b676"><path d="M 126.621094 166.769531 L 137.65625 166.769531 L 137.65625 185.960938 L 126.621094 185.960938 Z M 126.621094 166.769531 " clip-rule="nonzero"/></clipPath><clipPath id="53f223f5b7"><path d="M 137.601562 169.640625 C 136.523438 175.742188 136.0625 175.949219 135.910156 176.570312 C 135.652344 177.394531 136.0625 178.636719 135.855469 179.722656 C 135.601562 180.859375 135.242188 182.410156 134.472656 183.1875 C 133.652344 183.960938 131.703125 184.738281 130.984375 184.480469 C 130.472656 184.273438 130.320312 183.546875 130.164062 182.667969 C 129.804688 180.859375 130.214844 174.914062 130.832031 173.464844 C 131.035156 172.898438 131.292969 172.691406 131.601562 172.484375 C 131.960938 172.277344 132.472656 172.171875 132.882812 172.277344 C 133.34375 172.433594 133.910156 172.847656 134.164062 173.363281 C 134.421875 173.984375 134.320312 175.015625 134.0625 176 C 133.703125 177.5 132.523438 179.878906 131.652344 181.222656 C 130.984375 182.253906 130.214844 183.289062 129.550781 183.703125 C 129.140625 183.960938 128.730469 184.066406 128.320312 183.960938 C 127.910156 183.859375 127.191406 183.445312 127.035156 182.980469 C 126.832031 182.460938 127.34375 180.964844 127.34375 180.964844 C 127.292969 180.964844 127.035156 182.773438 126.933594 182.773438 C 126.832031 182.773438 126.675781 181.6875 126.675781 181.066406 C 126.625 180.289062 126.675781 179.410156 126.832031 178.429688 C 127.085938 177.085938 127.753906 174.5 128.320312 173.621094 C 128.625 173.207031 128.933594 172.949219 129.292969 172.847656 C 129.753906 172.742188 130.523438 172.792969 130.882812 173.15625 C 131.445312 173.671875 131.601562 175.070312 131.703125 176.464844 C 131.910156 178.6875 131.753906 184.117188 130.984375 185.304688 C 130.675781 185.773438 130.265625 185.875 129.855469 185.875 C 129.394531 185.925781 128.625 185.71875 128.320312 185.304688 C 127.910156 184.738281 127.960938 183.652344 128.164062 182.308594 C 128.574219 179.207031 131.191406 169.277344 132.984375 167.570312 C 133.652344 166.898438 134.523438 166.796875 135.085938 166.953125 C 135.550781 167.105469 136.0625 167.832031 136.164062 168.296875 C 136.320312 168.65625 136.265625 169.070312 136.0625 169.433594 C 135.804688 169.847656 135.191406 170.414062 134.730469 170.46875 C 134.214844 170.570312 133.445312 170.3125 133.085938 169.898438 C 132.730469 169.535156 132.523438 168.761719 132.625 168.296875 C 132.730469 167.777344 133.34375 167.160156 133.753906 166.953125 C 134.113281 166.796875 134.523438 166.746094 134.882812 166.898438 C 135.394531 167.160156 136.0625 167.726562 136.214844 168.65625 C 136.675781 171.347656 132.472656 184.117188 130.625 185.566406 C 130.113281 186.03125 129.496094 185.976562 129.035156 185.773438 C 128.574219 185.617188 128.164062 185.253906 127.960938 184.53125 C 127.292969 182.824219 127.601562 175.636719 128.164062 174.035156 C 128.371094 173.464844 128.574219 173.257812 128.933594 173.050781 C 129.242188 172.847656 129.753906 172.742188 130.113281 172.792969 C 130.523438 172.898438 130.933594 173.15625 131.191406 173.464844 C 131.445312 173.726562 131.550781 174.085938 131.550781 174.65625 C 131.601562 175.636719 130.574219 177.550781 130.265625 179 C 130.011719 180.445312 130.472656 182.667969 129.910156 183.445312 C 129.550781 183.859375 128.832031 184.011719 128.320312 183.960938 C 127.855469 183.859375 127.242188 183.394531 127.035156 182.980469 C 126.832031 182.515625 126.882812 181.996094 127.085938 181.324219 C 127.496094 180.03125 129.855469 177.757812 130.472656 176.207031 C 130.933594 175.121094 130.523438 173.726562 130.984375 173.050781 C 131.34375 172.585938 131.960938 172.277344 132.421875 172.226562 C 132.832031 172.226562 133.34375 172.433594 133.652344 172.640625 C 133.960938 172.898438 134.164062 173.207031 134.265625 173.777344 C 134.523438 175.222656 134.011719 181.6875 133.085938 182.152344 C 132.675781 182.359375 131.753906 181.945312 131.550781 181.375 C 130.984375 180.136719 133.652344 175.015625 134.113281 172.742188 C 134.371094 171.347656 134.164062 170.003906 134.472656 169.226562 C 134.625 168.8125 134.832031 168.503906 135.085938 168.296875 C 135.394531 168.140625 135.855469 167.984375 136.214844 168.039062 C 136.523438 168.089844 136.933594 168.296875 137.191406 168.554688 C 137.394531 168.8125 137.601562 169.640625 137.601562 169.640625 " clip-rule="nonzero"/></clipPath><clipPath id="ed60535812"><path d="M 74.859375 151.828125 L 137.964844 151.828125 L 137.964844 177.277344 L 74.859375 177.277344 Z M 74.859375 151.828125 " clip-rule="nonzero"/></clipPath><clipPath id="5035980993"><path d="M 137.035156 155.320312 C 138.0625 159.765625 138.0625 160.902344 137.652344 161.679688 C 137.292969 162.453125 136.472656 163.074219 135.753906 163.488281 C 135.035156 163.902344 134.214844 163.644531 133.394531 164.109375 C 132.214844 164.78125 131.035156 167.160156 129.703125 167.675781 C 128.730469 168.089844 126.574219 167.519531 126.574219 167.625 C 126.574219 167.726562 129.085938 167.933594 129.085938 168.089844 C 129.085938 168.191406 128.78125 168.296875 128.523438 168.296875 C 128.011719 168.347656 126.675781 168.191406 126.164062 167.726562 C 125.601562 167.210938 125.292969 166.074219 125.292969 165.402344 C 125.34375 164.78125 125.753906 164.261719 126.214844 163.746094 C 126.78125 163.125 128.320312 162.765625 128.730469 162.039062 C 129.085938 161.316406 128.523438 160.332031 128.730469 159.558594 C 128.984375 158.574219 129.550781 157.179688 130.371094 156.714844 C 131.085938 156.25 132.523438 156.351562 133.34375 156.714844 C 134.164062 157.023438 134.933594 157.800781 135.242188 158.730469 C 135.703125 159.972656 135.753906 161.9375 134.882812 163.847656 C 133.191406 167.46875 124.472656 176.050781 121.601562 177.035156 C 120.574219 177.394531 119.652344 176.980469 119.085938 176.671875 C 118.625 176.464844 118.371094 176.101562 118.214844 175.636719 C 117.960938 175.121094 117.753906 174.34375 117.960938 173.671875 C 118.265625 172.792969 119.960938 171.96875 120.523438 171.035156 C 120.984375 170.261719 120.726562 169.382812 121.292969 168.605469 C 122.0625 167.570312 124.472656 165.554688 125.445312 165.761719 C 126.164062 165.917969 126.78125 167.3125 126.882812 168.140625 C 127.035156 168.96875 126.832031 169.847656 126.265625 170.777344 C 125.34375 172.378906 122.472656 175.378906 120.726562 176.15625 C 119.496094 176.671875 118.214844 176.621094 117.242188 176.308594 C 116.421875 176.050781 116.164062 175.277344 115.292969 174.808594 C 113.90625 174.136719 111.601562 173.464844 109.496094 173.15625 C 106.984375 172.742188 101.804688 173.878906 101.136719 172.792969 C 100.675781 172.121094 101.855469 170.3125 102.421875 169.433594 C 102.882812 168.710938 103.292969 168.039062 104.113281 167.726562 C 105.445312 167.261719 108.421875 167.933594 110.0625 168.191406 C 111.242188 168.398438 112.265625 168.65625 113.136719 169.019531 C 113.855469 169.328125 114.574219 169.691406 114.984375 170.207031 C 115.34375 170.726562 115.550781 171.5 115.445312 172.121094 C 115.34375 172.847656 114.625 173.878906 114.011719 174.242188 C 113.496094 174.605469 112.675781 174.65625 112.113281 174.5 C 111.496094 174.34375 110.472656 173.464844 110.472656 173.414062 C 110.523438 173.363281 112.933594 174.34375 112.882812 174.605469 C 112.78125 175.070312 104.316406 173.984375 101.957031 174.035156 C 100.832031 174.085938 100.367188 174.035156 99.445312 174.292969 C 98.164062 174.605469 96.472656 175.894531 95.035156 176.15625 C 93.804688 176.308594 92.113281 176.414062 91.34375 175.84375 C 90.726562 175.378906 90.164062 174.191406 90.367188 173.621094 C 90.574219 173.050781 92.164062 172.277344 92.574219 172.433594 C 92.933594 172.585938 93.035156 173.414062 93.035156 173.929688 C 93.035156 174.5 92.777344 175.328125 92.367188 175.792969 C 91.957031 176.257812 91.242188 176.621094 90.625 176.671875 C 90.007812 176.773438 89.242188 176.570312 88.726562 176.207031 C 88.214844 175.84375 88.007812 175.429688 87.597656 174.605469 C 86.726562 172.742188 84.574219 166.640625 84.574219 164.933594 C 84.574219 164.316406 84.675781 164.054688 84.933594 163.695312 C 85.242188 163.175781 85.855469 162.609375 86.472656 162.453125 C 87.035156 162.246094 87.855469 162.351562 88.367188 162.503906 C 88.832031 162.660156 89.1875 162.816406 89.445312 163.332031 C 89.957031 164.316406 89.855469 167.519531 89.703125 169.070312 C 89.597656 170.15625 89.703125 171.140625 89.085938 171.707031 C 88.367188 172.433594 86.214844 172.847656 85.1875 172.484375 C 84.265625 172.121094 83.546875 170.777344 83.085938 169.847656 C 82.675781 168.917969 82.574219 168.089844 82.367188 166.847656 C 82.0625 164.726562 81.292969 160.023438 81.90625 158.214844 C 82.265625 157.285156 82.882812 156.609375 83.597656 156.300781 C 84.316406 156.042969 85.496094 156.199219 86.113281 156.609375 C 86.726562 157.078125 87.085938 157.851562 87.292969 158.886719 C 87.652344 160.851562 87.035156 165.609375 86.367188 167.726562 C 86.007812 169.125 85.445312 170.261719 84.832031 170.882812 C 84.367188 171.292969 83.90625 171.398438 83.394531 171.5 C 82.828125 171.605469 82.007812 171.65625 81.496094 171.347656 C 80.828125 171.035156 80.113281 170.054688 79.957031 169.328125 C 79.804688 168.761719 79.957031 167.933594 80.316406 167.417969 C 80.625 166.898438 81.804688 166.226562 81.804688 166.226562 C 81.855469 166.28125 80.316406 168.449219 79.804688 168.296875 C 78.675781 167.882812 78.007812 156.871094 78.675781 154.335938 C 78.984375 153.25 79.496094 152.578125 80.113281 152.214844 C 80.675781 151.855469 81.445312 151.804688 82.0625 151.957031 C 82.726562 152.164062 83.597656 152.941406 83.957031 153.664062 C 84.316406 154.441406 84.0625 155.527344 84.113281 156.457031 C 84.113281 157.285156 84.214844 157.851562 84.113281 158.9375 C 83.90625 160.953125 83.035156 165.8125 82.265625 167.46875 C 81.90625 168.246094 81.546875 168.710938 81.085938 169.019531 C 80.675781 169.277344 80.265625 169.433594 79.804688 169.433594 C 79.238281 169.433594 78.417969 169.277344 77.957031 168.863281 C 77.445312 168.503906 77.136719 168.039062 76.882812 167.210938 C 76.367188 165.554688 76.316406 161.574219 76.417969 159.144531 C 76.523438 157.128906 76.675781 154.800781 77.292969 153.714844 C 77.703125 153.042969 78.214844 152.628906 78.828125 152.421875 C 79.394531 152.214844 80.214844 152.269531 80.777344 152.527344 C 81.34375 152.734375 81.957031 153.300781 82.214844 153.871094 C 82.472656 154.59375 82.164062 156.507812 82.113281 156.507812 C 82.113281 156.507812 82.007812 153.714844 82.0625 153.714844 C 82.164062 153.714844 82.625 155.421875 82.523438 156.300781 C 82.472656 157.230469 82.164062 158.523438 81.597656 159.144531 C 81.035156 159.714844 79.957031 160.074219 79.1875 160.074219 C 78.417969 160.074219 77.445312 159.816406 76.933594 159.195312 C 76.164062 158.316406 75.804688 155.992188 75.90625 154.851562 C 75.957031 154.078125 76.265625 153.40625 76.574219 152.992188 C 76.882812 152.578125 77.238281 152.320312 77.703125 152.214844 C 78.316406 152.0625 79.652344 152.113281 80.265625 152.527344 C 80.828125 152.835938 81.136719 153.457031 81.394531 154.128906 C 81.703125 155.007812 81.855469 156.300781 81.703125 157.285156 C 81.496094 158.265625 80.625 159.09375 80.316406 160.074219 C 80.007812 161.160156 79.753906 162.558594 79.855469 163.539062 C 79.957031 164.367188 80.675781 165.089844 80.675781 165.710938 C 80.675781 166.28125 80.0625 166.640625 80.0625 167.160156 C 80.113281 167.832031 81.1875 168.8125 81.242188 169.535156 C 81.242188 170.15625 80.984375 170.777344 80.574219 171.242188 C 80.0625 171.761719 78.882812 172.277344 78.164062 172.277344 C 77.546875 172.226562 76.933594 171.914062 76.523438 171.554688 C 76.113281 171.140625 75.703125 170.570312 75.648438 169.949219 C 75.597656 169.226562 75.90625 167.984375 76.472656 167.417969 C 76.984375 166.898438 78.214844 166.539062 78.984375 166.691406 C 79.703125 166.796875 80.675781 167.675781 80.984375 168.347656 C 81.292969 168.863281 81.292969 169.589844 81.136719 170.15625 C 80.984375 170.675781 80.675781 171.292969 80.164062 171.65625 C 79.546875 172.070312 78.164062 172.226562 77.597656 172.121094 C 77.238281 172.070312 77.035156 172.019531 76.777344 171.707031 C 76.164062 171.089844 75.394531 169.328125 75.085938 167.519531 C 74.574219 164.367188 74.984375 156.558594 75.957031 154.179688 C 76.417969 153.09375 76.984375 152.476562 77.703125 152.214844 C 78.417969 151.90625 79.652344 152.0625 80.265625 152.527344 C 80.882812 152.941406 81.34375 154.179688 81.496094 154.800781 C 81.546875 155.265625 81.597656 155.835938 81.34375 155.9375 C 81.035156 156.144531 79.90625 154.851562 79.292969 154.957031 C 78.625 155.007812 77.703125 156.714844 77.394531 156.558594 C 77.035156 156.351562 76.984375 154.386719 77.292969 153.714844 C 77.546875 153.09375 78.214844 152.578125 78.828125 152.421875 C 79.546875 152.214844 80.777344 152.421875 81.394531 152.835938 C 81.90625 153.199219 82.214844 153.664062 82.417969 154.542969 C 82.882812 156.457031 81.496094 162.246094 81.652344 164.574219 C 81.703125 165.8125 82.417969 166.691406 82.265625 167.46875 C 82.113281 168.089844 81.597656 168.710938 81.085938 169.019531 C 80.574219 169.328125 79.753906 169.535156 79.136719 169.433594 C 78.523438 169.328125 77.855469 168.917969 77.445312 168.398438 C 77.085938 167.933594 76.882812 167.417969 76.828125 166.539062 C 76.726562 164.78125 78.316406 160.539062 78.625 158.214844 C 78.828125 156.457031 78.417969 154.699219 78.828125 153.664062 C 79.136719 152.992188 79.597656 152.476562 80.113281 152.214844 C 80.675781 151.90625 81.445312 151.804688 82.0625 151.957031 C 82.726562 152.164062 83.496094 152.683594 83.957031 153.664062 C 85.136719 155.992188 85.753906 164.46875 85.1875 167.625 C 84.882812 169.382812 84.265625 171.035156 83.394531 171.5 C 82.726562 171.863281 81.496094 171.449219 80.933594 171.035156 C 80.417969 170.675781 80.0625 169.949219 79.957031 169.328125 C 79.855469 168.761719 79.957031 167.933594 80.316406 167.417969 C 80.625 166.898438 81.804688 166.226562 81.804688 166.226562 C 81.855469 166.28125 81.085938 167.3125 80.882812 167.210938 C 80.367188 166.953125 81.085938 159.351562 82.164062 157.59375 C 82.675781 156.714844 83.546875 156.300781 84.214844 156.144531 C 84.832031 156.042969 85.597656 156.25 86.113281 156.609375 C 86.675781 157.078125 87.035156 157.851562 87.292969 158.886719 C 87.804688 160.953125 88.675781 167.105469 87.496094 168.449219 C 86.832031 169.277344 84.777344 169.484375 84.265625 168.96875 C 83.597656 168.296875 85.035156 163.589844 85.136719 163.589844 C 85.242188 163.589844 85.292969 166.796875 85.1875 166.796875 C 85.085938 166.847656 84.574219 165.503906 84.574219 164.933594 C 84.574219 164.46875 84.675781 164.054688 84.933594 163.695312 C 85.242188 163.175781 85.855469 162.609375 86.417969 162.453125 C 87.035156 162.246094 87.855469 162.351562 88.367188 162.503906 C 88.832031 162.660156 89.085938 162.867188 89.445312 163.332031 C 90.164062 164.261719 91.035156 166.796875 91.597656 168.605469 C 92.214844 170.363281 93.035156 172.742188 93.035156 173.929688 C 93.035156 174.5 92.984375 174.808594 92.726562 175.222656 C 92.421875 175.691406 91.855469 176.363281 91.242188 176.515625 C 90.574219 176.722656 89.34375 176.621094 88.726562 176.207031 C 88.164062 175.894531 87.804688 175.277344 87.597656 174.605469 C 87.394531 173.726562 87.597656 172.226562 87.804688 171.242188 C 88.007812 170.414062 88.164062 169.535156 88.675781 168.96875 C 89.242188 168.347656 90.214844 167.726562 91.085938 167.675781 C 92.0625 167.675781 93.597656 168.347656 94.265625 169.175781 C 94.933594 170.003906 95.601562 172.019531 95.1875 172.585938 C 94.675781 173.15625 91.34375 172.691406 91.292969 172.277344 C 91.1875 171.8125 95.085938 170.003906 96.777344 169.382812 C 98.113281 168.917969 98.882812 168.761719 100.472656 168.605469 C 103.292969 168.398438 109.546875 168.398438 112.164062 169.125 C 113.601562 169.484375 114.832031 170.15625 115.292969 170.828125 C 115.550781 171.191406 115.550781 171.65625 115.445312 172.121094 C 115.34375 172.691406 115.035156 173.464844 114.574219 173.878906 C 114.113281 174.292969 113.394531 174.605469 112.78125 174.550781 C 112.0625 174.550781 110.984375 173.363281 110.472656 173.414062 C 110.265625 173.414062 110.265625 173.726562 109.960938 173.828125 C 108.726562 174.242188 101.804688 174.085938 99.90625 173.207031 C 98.882812 172.742188 98.265625 172.070312 98.011719 171.292969 C 97.703125 170.46875 97.804688 168.96875 98.316406 168.296875 C 98.832031 167.625 99.90625 167.417969 101.085938 167.210938 C 102.882812 166.898438 105.957031 167.210938 108.421875 167.46875 C 110.882812 167.675781 113.703125 167.777344 115.753906 168.710938 C 117.550781 169.535156 120.371094 172.226562 120.265625 172.433594 C 120.164062 172.535156 117.960938 171.8125 117.855469 171.292969 C 117.804688 170.519531 121.292969 167.726562 122.265625 167.933594 C 122.933594 168.089844 122.882812 169.796875 123.550781 170.207031 C 124.214844 170.675781 126.113281 170.105469 126.421875 170.570312 C 126.675781 171.035156 126.011719 172.070312 125.496094 172.898438 C 124.730469 174.136719 122.882812 176.570312 121.652344 177.035156 C 120.78125 177.34375 119.703125 177.085938 119.085938 176.671875 C 118.523438 176.308594 118.113281 175.636719 117.960938 175.015625 C 117.804688 174.449219 117.960938 173.671875 118.214844 173.050781 C 118.472656 172.378906 118.882812 171.863281 119.652344 171.035156 C 121.140625 169.433594 125.496094 166.488281 127.394531 164.523438 C 128.730469 163.125 129.191406 160.953125 130.371094 160.59375 C 131.34375 160.332031 133.34375 161.210938 133.703125 161.988281 C 134.0625 162.660156 133.5 163.847656 133.085938 164.625 C 132.625 165.402344 131.753906 166.019531 131.085938 166.640625 C 130.421875 167.160156 129.804688 167.832031 129.085938 168.089844 C 128.523438 168.347656 127.804688 168.503906 127.242188 168.296875 C 126.574219 168.089844 125.753906 167.3125 125.445312 166.640625 C 125.191406 166.125 125.242188 165.347656 125.496094 164.78125 C 125.703125 164.261719 126.164062 163.589844 126.730469 163.382812 C 127.394531 163.175781 129.445312 164.054688 129.445312 164.109375 C 129.445312 164.109375 126.730469 164.003906 126.625 163.539062 C 126.472656 162.917969 129.550781 160.59375 130.933594 160.125 C 131.910156 159.816406 133.445312 160.746094 133.804688 160.230469 C 134.265625 159.660156 132.371094 157.179688 132.421875 156.042969 C 132.472656 155.265625 132.882812 154.441406 133.394531 154.078125 C 133.910156 153.664062 134.933594 153.507812 135.550781 153.714844 C 136.164062 153.921875 137.035156 155.320312 137.035156 155.320312 " clip-rule="nonzero"/></clipPath><clipPath id="e7f0ac96ae"><path d="M 55.15625 113 L 157.15625 113 L 157.15625 194.523438 L 55.15625 194.523438 Z M 55.15625 113 " clip-rule="nonzero"/></clipPath></defs><g clip-path="url(#85a8789881)"><path fill="#2e6699" d="M 141.714844 172.207031 C 142.34375 172.222656 142.890625 172.585938 143.183594 173.683594 C 143.820312 178.335938 143.8125 183.191406 143.132812 188.003906 C 140.457031 184.117188 137.304688 180.835938 133.039062 178.777344 C 135.542969 176.316406 137.996094 173.714844 139.722656 172.859375 C 140.367188 172.539062 141.085938 172.199219 141.714844 172.207031 Z M 71.144531 172.207031 C 71.78125 172.199219 72.492188 172.539062 73.132812 172.859375 C 74.871094 173.714844 77.316406 176.3125 79.824219 178.777344 C 75.558594 180.835938 72.40625 184.117188 69.726562 188.003906 C 69.042969 183.191406 69.035156 178.335938 69.679688 173.683594 C 69.976562 172.585938 70.511719 172.222656 71.144531 172.207031 Z M 75.453125 161.894531 C 76.105469 161.917969 76.734375 162.183594 77.324219 162.507812 C 79.78125 163.84375 82.617188 166.648438 85.195312 169.207031 C 87.769531 171.773438 89.921875 174.160156 91.453125 175.425781 C 92.035156 175.902344 92.839844 176 93.511719 175.675781 C 98.164062 173.449219 103.324219 172.957031 106.429688 172.949219 C 109.542969 172.953125 114.695312 173.449219 119.34375 175.675781 C 120.027344 176 120.832031 175.902344 121.40625 175.425781 C 122.945312 174.160156 125.09375 171.773438 127.671875 169.207031 C 130.246094 166.644531 133.089844 163.84375 135.542969 162.507812 C 136.730469 161.867188 138.050781 161.441406 139.40625 162.722656 C 140.429688 163.699219 141.441406 165.773438 142.203125 168.410156 C 140.679688 168.242188 139.207031 168.75 137.859375 169.503906 C 134.816406 171.199219 131.875 174.304688 128.566406 177.613281 C 127.511719 178.660156 127.988281 180.457031 129.421875 180.839844 C 134.769531 182.410156 139.542969 187.871094 142.800781 194.949219 L 148.667969 207.683594 C 148.738281 207.820312 148.820312 207.957031 148.917969 208.078125 L 152.683594 212.730469 L 146.769531 214.511719 C 145.367188 214.933594 144.9375 216.714844 145.988281 217.730469 L 151.019531 222.617188 C 141.746094 236.09375 122.140625 246.609375 106.429688 246.609375 C 90.71875 246.609375 71.109375 236.09375 61.839844 222.613281 L 66.878906 217.726562 C 67.929688 216.714844 67.5 214.933594 66.089844 214.507812 L 60.179688 212.726562 L 63.945312 208.074219 C 64.042969 207.953125 64.125 207.820312 64.1875 207.679688 L 70.058594 194.945312 C 73.324219 187.871094 78.089844 182.410156 83.445312 180.839844 C 84.875 180.453125 85.355469 178.65625 84.300781 177.613281 C 80.988281 174.300781 78.042969 171.199219 75.003906 169.5 C 73.65625 168.75 72.1875 168.242188 70.65625 168.410156 C 71.421875 165.773438 72.429688 163.699219 73.460938 162.722656 C 74.132812 162.085938 74.800781 161.867188 75.453125 161.894531 Z M 74.824219 158.050781 C 73.308594 158.117188 71.863281 158.707031 70.761719 159.964844 C 66.761719 164.539062 66.15625 170.617188 65.527344 174.746094 C 64.9375 178.667969 65.242188 186.417969 66.816406 192.8125 L 60.800781 205.839844 L 55.378906 212.539062 C 54.519531 213.597656 55.015625 215.1875 56.324219 215.585938 L 61.847656 217.25 L 57.878906 221.113281 C 57.226562 221.75 57.105469 222.75 57.589844 223.511719 C 67.382812 239.015625 88.550781 250.453125 106.429688 250.453125 C 124.304688 250.453125 145.480469 239.015625 155.277344 223.511719 C 155.753906 222.75 155.632812 221.75 154.980469 221.113281 L 151.011719 217.25 L 156.542969 215.585938 C 157.851562 215.1875 158.34375 213.601562 157.488281 212.539062 L 152.0625 205.84375 L 146.046875 192.8125 C 147.625 186.417969 147.929688 178.667969 147.328125 174.746094 C 146.707031 170.617188 146.101562 164.542969 142.101562 159.96875 C 139.894531 157.445312 136.328125 157.609375 133.53125 159.242188 C 130.546875 160.972656 127.601562 163.847656 124.949219 166.484375 C 122.558594 168.875 120.640625 170.882812 119.527344 171.898438 C 114.632812 169.929688 109.574219 169.121094 106.445312 169.113281 L 106.429688 169.121094 L 106.421875 169.113281 C 103.292969 169.121094 98.230469 169.929688 93.332031 171.898438 C 92.21875 170.886719 90.308594 168.878906 87.90625 166.484375 C 85.265625 163.847656 82.308594 160.972656 79.332031 159.242188 C 77.929688 158.421875 76.339844 157.972656 74.824219 158.050781 Z M 74.824219 158.050781 " fill-opacity="1" fill-rule="evenodd"/></g><path fill="#2e6699" d="M 106.300781 208.75 C 102.230469 208.75 98.9375 209.960938 98.9375 212.972656 C 98.9375 215.121094 100.632812 218.070312 104.367188 218.835938 L 104.367188 222.660156 C 104.367188 224.296875 103.425781 225.78125 101.945312 226.472656 C 100.457031 227.167969 98.722656 226.933594 97.464844 225.878906 C 96.207031 224.828125 95.679688 223.144531 96.101562 221.5625 C 96.464844 220.296875 95.464844 219.046875 94.148438 219.117188 C 93.308594 219.160156 92.59375 219.753906 92.382812 220.570312 C 91.578125 223.585938 92.527344 226.902344 94.996094 228.820312 C 98.789062 231.773438 103.691406 231.273438 106.292969 227.859375 C 108.890625 231.273438 113.789062 231.773438 117.585938 228.820312 C 120.054688 226.902344 121.003906 223.585938 120.191406 220.570312 C 119.988281 219.753906 119.277344 219.160156 118.433594 219.117188 C 117.117188 219.046875 116.117188 220.296875 116.480469 221.5625 C 116.90625 223.144531 116.375 224.828125 115.117188 225.878906 C 113.859375 226.933594 112.125 227.167969 110.636719 226.472656 C 109.152344 225.78125 108.214844 224.304688 108.207031 222.667969 L 108.214844 218.839844 C 111.957031 218.078125 113.652344 215.128906 113.652344 212.972656 C 113.65625 209.964844 110.359375 208.75 106.300781 208.75 Z M 106.300781 208.75 " fill-opacity="1" fill-rule="evenodd"/><path fill="#2e6699" d="M 89.042969 199.289062 C 86.4375 199.289062 84.324219 201.71875 84.324219 204.730469 C 84.324219 207.730469 86.4375 210.167969 89.042969 210.167969 C 91.648438 210.167969 93.761719 207.726562 93.761719 204.730469 C 93.761719 201.71875 91.648438 199.289062 89.042969 199.289062 Z M 89.042969 199.289062 " fill-opacity="1" fill-rule="evenodd"/><path fill="#2e6699" d="M 123.554688 199.289062 C 126.164062 199.289062 128.277344 201.71875 128.277344 204.730469 C 128.277344 207.730469 126.164062 210.167969 123.554688 210.167969 C 120.949219 210.167969 118.835938 207.726562 118.835938 204.730469 C 118.828125 201.71875 120.941406 199.289062 123.554688 199.289062 Z M 123.554688 199.289062 " fill-opacity="1" fill-rule="evenodd"/><g clip-path="url(#7ed9b4d7e0)"><g clip-path="url(#8695095650)"><path fill="#fff2f4" d="M 72.882812 164.160156 L 88.523438 164.160156 L 88.523438 188.050781 L 72.882812 188.050781 Z M 72.882812 164.160156 " fill-opacity="1" fill-rule="nonzero"/></g></g><g clip-path="url(#a6d847b676)"><g clip-path="url(#53f223f5b7)"><path fill="#fff2f4" d="M 124.625 164.832031 L 139.652344 164.832031 L 139.652344 188.015625 L 124.625 188.015625 Z M 124.625 164.832031 " fill-opacity="1" fill-rule="nonzero"/></g></g><g clip-path="url(#ed60535812)"><g clip-path="url(#5035980993)"><path fill="#fff2f4" d="M 73.035156 149.890625 L 140.015625 149.890625 L 140.015625 179.101562 L 73.035156 179.101562 Z M 73.035156 149.890625 " fill-opacity="1" fill-rule="nonzero"/></g></g><g clip-path="url(#e7f0ac96ae)"><path fill="#2e6699" d="M 126.71875 122.109375 C 130.625 123.871094 133.554688 125.683594 135.785156 127.691406 C 139.835938 131.335938 142.828125 135.921875 149.75 141.984375 C 152.609375 144.488281 153.800781 147.488281 153.925781 150.5625 C 154.058594 153.640625 153.046875 156.785156 151.375 159.285156 C 149.699219 161.789062 147.390625 163.589844 145.078125 164.160156 C 142.871094 164.699219 140.640625 164.09375 138.335938 161.957031 C 137.171875 151.59375 135.835938 141.0625 132.675781 132.464844 C 131.214844 128.480469 129.164062 125.066406 126.71875 122.109375 Z M 85.929688 122.109375 C 83.492188 125.066406 81.433594 128.480469 79.96875 132.464844 C 76.8125 141.058594 75.480469 151.59375 74.316406 161.957031 C 72.011719 164.09375 69.773438 164.699219 67.566406 164.160156 C 65.261719 163.585938 62.949219 161.789062 61.269531 159.285156 C 59.59375 156.785156 58.589844 153.636719 58.71875 150.5625 C 58.851562 147.488281 60.039062 144.492188 62.902344 141.984375 C 69.824219 135.921875 72.808594 131.335938 76.867188 127.691406 C 79.09375 125.683594 82.03125 123.871094 85.929688 122.109375 Z M 106.324219 116.539062 C 108.761719 116.5625 111.652344 117.132812 114.421875 117.804688 C 121.976562 119.625 126.464844 125.320312 129.515625 133.621094 C 132.558594 141.898438 133.953125 152.535156 135.132812 163.128906 C 135.132812 169.621094 134.769531 176.566406 131.195312 181.761719 C 127.742188 186.765625 121.21875 190.550781 108.011719 190.84375 L 108.011719 181.078125 C 113.113281 180.371094 115.417969 176.507812 115.417969 173.71875 C 115.417969 170.003906 111.347656 168.503906 106.316406 168.503906 C 101.296875 168.503906 97.214844 170.003906 97.214844 173.71875 C 97.214844 176.507812 99.527344 180.371094 104.628906 181.078125 L 104.628906 190.84375 C 91.429688 190.542969 84.90625 186.765625 81.457031 181.761719 C 77.878906 176.566406 77.519531 169.621094 77.511719 163.128906 C 78.695312 152.535156 80.097656 141.898438 83.132812 133.621094 C 86.183594 125.320312 90.679688 119.625 98.234375 117.804688 C 101.003906 117.132812 103.890625 116.5625 106.324219 116.539062 Z M 106.316406 113.167969 C 103.195312 113.453125 99.988281 113.824219 97.308594 114.554688 C 85.019531 117.910156 79.058594 121.179688 74.601562 125.183594 C 70.140625 129.203125 67.320312 133.628906 60.679688 139.445312 C 57.144531 142.546875 55.515625 146.527344 55.351562 150.414062 C 55.183594 154.304688 56.414062 158.105469 58.464844 161.171875 C 60.519531 164.230469 63.414062 166.605469 66.769531 167.433594 C 69.15625 168.019531 71.757812 167.699219 74.175781 166.367188 C 74.324219 172.152344 75.066406 178.433594 78.679688 183.683594 C 83 189.949219 91.335938 194.261719 106.316406 194.261719 L 106.324219 194.25 L 106.335938 194.261719 C 121.316406 194.261719 129.652344 189.949219 133.972656 183.683594 C 137.585938 178.4375 138.320312 172.152344 138.476562 166.367188 C 140.894531 167.699219 143.492188 168.019531 145.882812 167.433594 C 149.238281 166.605469 152.132812 164.230469 154.179688 161.171875 C 156.230469 158.109375 157.460938 154.304688 157.300781 150.414062 C 157.136719 146.527344 155.507812 142.546875 151.96875 139.445312 C 145.324219 133.625 142.507812 129.203125 138.042969 125.183594 C 133.59375 121.179688 127.628906 117.910156 115.335938 114.554688 C 112.660156 113.824219 109.453125 113.453125 106.335938 113.167969 L 106.320312 113.1875 Z M 106.316406 113.167969 " fill-opacity="1" fill-rule="evenodd"/></g><path fill="#2e6699" d="M 91.183594 149.386719 C 88.898438 149.386719 87.046875 151.519531 87.050781 154.15625 C 87.050781 156.785156 88.898438 158.925781 91.183594 158.925781 C 93.476562 158.925781 95.328125 156.785156 95.328125 154.15625 C 95.328125 151.519531 93.476562 149.386719 91.183594 149.386719 Z M 91.183594 149.386719 " fill-opacity="1" fill-rule="evenodd"/><path fill="#2e6699" d="M 121.449219 149.386719 C 123.734375 149.386719 125.589844 151.519531 125.589844 154.15625 C 125.589844 156.785156 123.734375 158.925781 121.449219 158.925781 C 119.164062 158.925781 117.3125 156.785156 117.3125 154.15625 C 117.3125 151.519531 119.164062 149.386719 121.449219 149.386719 Z M 121.449219 149.386719 " fill-opacity="1" fill-rule="evenodd"/><path stroke-linecap="butt" transform="matrix(0.75, 0, 0, 0.75, 100.31036, 107.975808)" fill="none" stroke-linejoin="miter" d="M 86.148693 125.073931 L 86.148693 47.214551 C 86.148693 45.15205 86.216401 43.631217 86.34661 42.657259 C 86.476818 41.678092 86.857026 40.573925 87.487235 39.334342 C 88.72161 36.928092 91.695568 35.719758 96.403902 35.719758 C 101.112236 35.719758 104.294527 36.329133 105.940361 37.542675 C 107.591403 38.740592 108.544528 40.485384 108.804944 42.787467 C 112.190361 38.1833 117.497653 35.886425 124.721612 35.886425 C 131.971613 35.886425 138.841405 39.303092 145.330989 46.136426 C 151.815364 52.974968 155.060156 60.928093 155.060156 69.995802 C 155.060156 79.068719 151.841406 87.032262 145.393489 93.891637 C 138.971613 100.724971 132.112238 104.146846 124.820571 104.146846 C 117.528903 104.146846 112.237236 102.094763 108.935153 97.990596 L 108.935153 124.943722 C 108.935153 126.985389 108.872653 128.490598 108.742444 129.469764 C 108.612236 130.443723 108.211194 131.573931 107.539319 132.855181 C 106.888278 134.157265 105.758069 135.068723 104.153902 135.589556 C 102.544527 136.131223 100.367444 136.402056 97.607027 136.402056 C 94.851819 136.402056 92.648693 136.131223 91.00286 135.589556 C 89.372652 135.068723 88.22161 134.178098 87.549735 132.917681 C 86.87786 131.683306 86.476818 130.573931 86.34661 129.599973 C 86.216401 128.620806 86.148693 127.115598 86.148693 125.073931 Z M 112.549736 62.28226 C 110.50807 64.672885 109.492445 67.287469 109.492445 70.12601 C 109.492445 72.969761 110.534111 75.573927 112.617445 77.938511 C 114.700778 80.282261 117.357028 81.454136 120.591404 81.454136 C 123.846612 81.454136 126.601821 80.308303 128.857029 78.006219 C 131.138279 75.683302 132.273696 73.058302 132.273696 70.12601 C 132.273696 67.198927 131.200779 64.56351 129.054946 62.21976 C 126.924737 59.855176 124.148695 58.672885 120.721612 58.672885 C 117.315362 58.672885 114.591403 59.87601 112.549736 62.28226 Z M 230.955994 62.480177 C 230.955994 67.948927 229.596619 71.995802 226.883077 74.620802 C 224.174744 77.224969 221.164327 78.527053 217.867452 78.527053 L 186.263283 78.527053 C 186.263283 81.021845 187.726825 83.115595 190.653908 84.808303 C 193.607033 86.501012 196.544534 87.34997 199.476825 87.34997 C 204.643492 87.34997 208.690368 86.803095 211.617451 85.719761 L 213.080993 85.198928 C 215.211201 84.22497 216.987243 83.735386 218.419535 83.735386 C 221.263285 83.735386 223.705994 85.730178 225.74766 89.72497 C 226.893494 92.13122 227.471619 94.183304 227.471619 95.876012 C 227.471619 103.777054 218.008077 107.724971 199.0862 107.724971 C 192.513283 107.724971 186.664325 106.594763 181.539324 104.339554 C 176.440366 102.063513 172.461199 99.058304 169.596615 95.323929 C 163.997656 88.141637 161.195573 80.099969 161.195573 71.204136 C 161.195573 60.006218 164.820573 51.053093 172.070574 44.349967 C 179.315366 37.6208 188.36745 34.256216 199.216409 34.256216 C 211.565368 34.256216 220.62266 38.6208 226.398702 47.344759 C 229.435161 51.964551 230.955994 57.011426 230.955994 62.480177 Z M 202.794534 66.386427 C 206.179951 66.386427 207.872659 64.964552 207.872659 62.120802 C 207.872659 60.079135 207.091409 58.443718 205.528909 57.204135 C 203.992451 55.96976 201.768492 55.349968 198.857034 55.349968 C 195.971617 55.349968 193.107033 56.53226 190.263283 58.896843 C 187.419533 61.240593 186.002866 63.735385 186.002866 66.386427 Z M 279.867456 59.323926 L 271.205997 58.803093 L 271.205997 77.193719 C 271.205997 79.599969 271.586205 81.339553 272.346622 82.402053 C 273.107039 83.464553 274.528914 83.995803 276.612247 83.995803 C 278.695581 83.995803 280.289331 84.058303 281.393497 84.188511 C 282.523706 84.31872 283.705998 84.745803 284.945581 85.459345 C 286.982039 86.610387 288.002873 89.594762 288.002873 94.41247 C 288.002873 100.011429 286.752873 103.428096 284.258081 104.667679 C 282.935164 105.292679 281.763289 105.672888 280.742456 105.803096 C 279.721622 105.933304 278.237247 106.001013 276.284122 106.001013 C 267.03933 106.001013 260.008079 103.917679 255.190371 99.751012 C 250.393495 95.563512 247.997662 88.485387 247.997662 78.527053 L 247.997662 58.803093 C 246.304953 59.06351 244.482037 59.193718 242.528912 59.193718 C 240.575786 59.193718 238.945578 58.443718 237.643495 56.943718 C 236.367453 55.428093 235.726828 52.844759 235.726828 49.198926 C 235.726828 45.553092 235.940369 42.917675 236.37787 41.287467 C 236.830995 39.636425 237.461203 38.454133 238.263286 37.740592 C 239.695578 36.58955 241.476828 36.016633 243.601828 36.016633 L 247.997662 36.537467 L 247.997662 22.797882 C 247.997662 20.761424 248.060162 19.251007 248.19037 18.27184 C 248.34662 17.297882 248.768495 16.235382 249.461204 15.08434 C 250.633079 12.849965 254.060162 11.730173 259.747663 11.730173 C 265.778913 11.730173 269.372663 13.381215 270.523705 16.67809 C 270.97683 18.089549 271.205997 20.355174 271.205997 23.480174 L 271.205997 36.537467 C 275.112247 36.188508 278.065372 36.016633 280.060164 36.016633 C 282.080998 36.016633 283.596623 36.079133 284.617456 36.209342 C 285.638289 36.33955 286.810164 36.761425 288.133081 37.480175 C 290.455998 38.631217 291.617456 42.047884 291.617456 47.735384 C 291.617456 53.334343 290.409123 56.75101 288.002873 57.985385 C 286.679956 58.615593 285.497664 58.995801 284.455998 59.12601 C 283.435164 59.256218 281.903914 59.323926 279.867456 59.323926 Z M 279.867456 59.323926 " stroke="#2e6699" stroke-width="9.833309" stroke-opacity="1" stroke-miterlimit="4"/><g fill="#edc2c0" fill-opacity="1"><g transform="translate(160.919731, 187.475803)"><g><path d="M 4 14.296875 L 4 -44.09375 C 4 -45.632812 4.046875 -46.769531 4.140625 -47.5 C 4.242188 -48.226562 4.53125 -49.0625 5 -50 C 5.9375 -51.800781 8.171875 -52.703125 11.703125 -52.703125 C 15.234375 -52.703125 17.613281 -52.25 18.84375 -51.34375 C 20.082031 -50.445312 20.800781 -49.132812 21 -47.40625 C 23.53125 -50.863281 27.507812 -52.59375 32.9375 -52.59375 C 38.375 -52.59375 43.523438 -50.023438 48.390625 -44.890625 C 53.265625 -39.765625 55.703125 -33.800781 55.703125 -27 C 55.703125 -20.195312 53.285156 -14.226562 48.453125 -9.09375 C 43.617188 -3.96875 38.46875 -1.40625 33 -1.40625 C 27.53125 -1.40625 23.5625 -2.9375 21.09375 -6 L 21.09375 14.203125 C 21.09375 15.734375 21.039062 16.863281 20.9375 17.59375 C 20.84375 18.332031 20.546875 19.179688 20.046875 20.140625 C 19.546875 21.109375 18.695312 21.789062 17.5 22.1875 C 16.300781 22.59375 14.664062 22.796875 12.59375 22.796875 C 10.53125 22.796875 8.878906 22.59375 7.640625 22.1875 C 6.410156 21.789062 5.546875 21.125 5.046875 20.1875 C 4.546875 19.257812 4.242188 18.425781 4.140625 17.6875 C 4.046875 16.957031 4 15.828125 4 14.296875 Z M 23.796875 -32.796875 C 22.265625 -30.992188 21.5 -29.023438 21.5 -26.890625 C 21.5 -24.765625 22.28125 -22.816406 23.84375 -21.046875 C 25.414062 -19.285156 27.414062 -18.40625 29.84375 -18.40625 C 32.28125 -18.40625 34.347656 -19.269531 36.046875 -21 C 37.742188 -22.726562 38.59375 -24.691406 38.59375 -26.890625 C 38.59375 -29.097656 37.789062 -31.082031 36.1875 -32.84375 C 34.59375 -34.613281 32.507812 -35.5 29.9375 -35.5 C 27.375 -35.5 25.328125 -34.597656 23.796875 -32.796875 Z M 23.796875 -32.796875 "/></g></g></g><g fill="#edc2c0" fill-opacity="1"><g transform="translate(218.717489, 187.475803)"><g><path d="M 54.796875 -32.640625 C 54.796875 -28.546875 53.78125 -25.515625 51.75 -23.546875 C 49.71875 -21.578125 47.46875 -20.59375 45 -20.59375 L 21.296875 -20.59375 C 21.296875 -18.726562 22.394531 -17.160156 24.59375 -15.890625 C 26.800781 -14.628906 29.003906 -14 31.203125 -14 C 35.066406 -14 38.097656 -14.398438 40.296875 -15.203125 L 41.40625 -15.59375 C 43 -16.332031 44.332031 -16.703125 45.40625 -16.703125 C 47.53125 -16.703125 49.363281 -15.203125 50.90625 -12.203125 C 51.769531 -10.398438 52.203125 -8.863281 52.203125 -7.59375 C 52.203125 -1.664062 45.101562 1.296875 30.90625 1.296875 C 25.96875 1.296875 21.582031 0.445312 17.75 -1.25 C 13.914062 -2.945312 10.929688 -5.195312 8.796875 -8 C 4.597656 -13.394531 2.5 -19.425781 2.5 -26.09375 C 2.5 -34.5 5.210938 -41.21875 10.640625 -46.25 C 16.078125 -51.28125 22.863281 -53.796875 31 -53.796875 C 40.269531 -53.796875 47.070312 -50.53125 51.40625 -44 C 53.664062 -40.53125 54.796875 -36.742188 54.796875 -32.640625 Z M 33.703125 -29.703125 C 36.234375 -29.703125 37.5 -30.769531 37.5 -32.90625 C 37.5 -34.4375 36.914062 -35.664062 35.75 -36.59375 C 34.582031 -37.53125 32.914062 -38 30.75 -38 C 28.582031 -38 26.429688 -37.113281 24.296875 -35.34375 C 22.160156 -33.582031 21.09375 -31.703125 21.09375 -29.703125 Z M 33.703125 -29.703125 "/></g></g></g><g fill="#edc2c0" fill-opacity="1"><g transform="translate(275.615284, 187.475803)"><g><path d="M 34.59375 -35 L 28.09375 -35.40625 L 28.09375 -21.59375 C 28.09375 -19.800781 28.375 -18.503906 28.9375 -17.703125 C 29.507812 -16.898438 30.578125 -16.5 32.140625 -16.5 C 33.710938 -16.5 34.914062 -16.445312 35.75 -16.34375 C 36.582031 -16.25 37.46875 -15.9375 38.40625 -15.40625 C 39.9375 -14.53125 40.703125 -12.296875 40.703125 -8.703125 C 40.703125 -4.503906 39.769531 -1.9375 37.90625 -1 C 36.90625 -0.53125 36.019531 -0.242188 35.25 -0.140625 C 34.476562 -0.046875 33.363281 0 31.90625 0 C 24.96875 0 19.695312 -1.566406 16.09375 -4.703125 C 12.5 -7.835938 10.703125 -13.132812 10.703125 -20.59375 L 10.703125 -35.40625 C 9.429688 -35.195312 8.0625 -35.09375 6.59375 -35.09375 C 5.132812 -35.09375 3.921875 -35.660156 2.953125 -36.796875 C 1.984375 -37.929688 1.5 -39.863281 1.5 -42.59375 C 1.5 -45.332031 1.664062 -47.316406 2 -48.546875 C 2.332031 -49.785156 2.800781 -50.671875 3.40625 -51.203125 C 4.46875 -52.066406 5.800781 -52.5 7.40625 -52.5 L 10.703125 -52.09375 L 10.703125 -62.40625 C 10.703125 -63.9375 10.75 -65.066406 10.84375 -65.796875 C 10.945312 -66.535156 11.265625 -67.335938 11.796875 -68.203125 C 12.660156 -69.867188 15.226562 -70.703125 19.5 -70.703125 C 24.03125 -70.703125 26.726562 -69.46875 27.59375 -67 C 27.925781 -65.9375 28.09375 -64.238281 28.09375 -61.90625 L 28.09375 -52.09375 C 31.03125 -52.363281 33.25 -52.5 34.75 -52.5 C 36.25 -52.5 37.378906 -52.445312 38.140625 -52.34375 C 38.910156 -52.25 39.796875 -51.9375 40.796875 -51.40625 C 42.535156 -50.53125 43.40625 -47.960938 43.40625 -43.703125 C 43.40625 -39.503906 42.503906 -36.9375 40.703125 -36 C 39.703125 -35.53125 38.816406 -35.242188 38.046875 -35.140625 C 37.285156 -35.046875 36.132812 -35 34.59375 -35 Z M 34.59375 -35 "/></g></g></g><path stroke-linecap="butt" transform="matrix(0.75, 0, 0, 0.75, 99.098348, 179.975775)" fill="none" stroke-linejoin="miter" d="M 141.483463 49.225012 C 141.483463 51.563554 142.249088 53.381262 143.785546 54.672929 C 145.332421 55.964596 146.973046 56.610429 148.707421 56.610429 C 150.441796 56.610429 152.066797 56.105221 153.572005 55.100013 C 155.092838 54.073971 156.322005 53.563554 157.264714 53.563554 C 158.920964 53.563554 160.93138 55.021888 163.295964 57.943763 C 164.561589 59.542721 165.197006 60.975013 165.197006 62.240638 C 165.197006 64.32918 163.681381 66.282305 160.655339 68.115638 C 157.504297 70.308347 153.65013 71.402097 149.092838 71.402097 C 143.962629 71.402097 139.025129 69.558347 134.280337 65.876055 C 132.01992 64.11043 130.170962 61.756263 128.728253 58.808346 C 127.30117 55.865638 126.587628 52.615637 126.587628 49.063554 C 126.587628 45.495845 127.30117 42.271887 128.728253 39.376053 C 130.170962 36.485428 132.01992 34.157303 134.280337 32.396886 C 138.853254 28.761469 143.728254 26.943761 148.910546 26.943761 C 151.009505 26.943761 153.045963 27.235427 155.02513 27.813552 C 157.014714 28.391677 158.483464 28.959386 159.426172 29.506261 L 160.733464 30.334386 C 161.733464 30.995844 162.504297 31.521886 163.056381 31.912511 C 164.483464 33.011469 165.197006 34.266678 165.197006 35.662511 C 165.197006 37.063553 164.618881 38.641678 163.457422 40.407303 C 161.483464 43.44897 159.58763 44.964595 157.769922 44.964595 C 156.717839 44.964595 155.228255 44.360428 153.290755 43.152095 C 152.30638 42.209387 150.889713 41.740637 149.030338 41.740637 C 147.186588 41.740637 145.467838 42.402095 143.863671 43.735428 C 142.275129 45.053137 141.483463 46.88647 141.483463 49.225012 Z M 196.697008 32.073969 C 197.019924 28.975011 199.1918 27.428136 203.217842 27.428136 C 205.368883 27.428136 206.967842 27.600011 208.019925 27.933344 C 209.0668 28.271886 209.795967 28.850011 210.197009 29.667719 C 210.613675 30.490636 210.863675 31.225011 210.947009 31.870844 C 211.025134 32.501053 211.0668 33.448969 211.0668 34.714595 L 211.0668 63.636471 C 211.0668 64.912513 211.025134 65.865638 210.947009 66.501055 C 210.863675 67.131263 210.6293 67.86043 210.238675 68.678138 C 209.47305 70.120847 207.587634 70.839597 204.587633 70.839597 C 201.587633 70.839597 199.577216 70.469805 198.556383 69.730222 C 197.530341 68.975013 196.941799 67.886472 196.780341 66.459388 C 194.733466 69.381263 191.332424 70.839597 186.566799 70.839597 C 181.806382 70.839597 177.379298 68.667722 173.290756 64.318763 C 169.212631 59.959388 167.176173 54.902096 167.176173 49.146887 C 167.176173 43.38647 169.223048 38.350011 173.327215 34.027094 C 177.447007 29.698969 181.952215 27.532302 186.848049 27.532302 C 188.733466 27.532302 190.441799 27.860427 191.973049 28.521886 C 193.525133 29.178136 194.598049 29.797928 195.202216 30.376053 C 195.811591 30.954178 196.306383 31.521886 196.697008 32.073969 Z M 181.644923 49.266679 C 181.644923 51.079179 182.358465 52.725012 183.78034 54.188554 C 185.223049 55.641679 186.957424 56.370846 188.988674 56.370846 C 191.035549 56.370846 192.728258 55.631263 194.072008 54.146887 C 195.431383 52.657304 196.113674 51.016679 196.113674 49.225012 C 196.113674 47.433345 195.462633 45.766679 194.155341 44.219803 C 192.863674 42.672928 191.129299 41.896887 188.947007 41.896887 C 186.78034 41.896887 185.019924 42.672928 183.660549 44.219803 C 182.316799 45.766679 181.644923 47.44897 181.644923 49.266679 Z M 245.124094 27.933344 C 246.170969 28.271886 247.040761 28.834386 247.728261 29.631261 C 248.410553 30.422928 248.754303 31.698969 248.754303 33.464594 C 248.754303 35.225011 248.23347 37.157303 247.181386 39.256261 C 246.144928 41.35522 244.634511 42.402095 242.639719 42.402095 C 241.660552 42.402095 240.712636 42.183345 239.795969 41.740637 C 238.879302 41.29272 237.676177 41.07397 236.181385 41.07397 C 234.702219 41.07397 233.316802 41.594803 232.025135 42.646887 C 230.733468 43.693762 230.087635 44.959387 230.087635 46.438554 L 230.087635 63.813555 C 230.087635 65.07918 230.04076 66.027097 229.94701 66.662513 C 229.868885 67.292722 229.613677 68.027097 229.181385 68.86043 C 228.348052 70.287514 226.191801 71.001055 222.723051 71.001055 C 220.087634 71.001055 218.186593 70.527097 217.030342 69.589597 C 216.144926 68.818763 215.644926 67.636472 215.540759 66.037513 C 215.540759 65.48543 215.540759 64.683346 215.540759 63.636471 L 215.540759 34.636469 C 215.540759 33.370844 215.577217 32.422928 215.660551 31.787511 C 215.738676 31.141678 215.978259 30.438553 216.363676 29.667719 C 217.134509 28.178136 219.280343 27.428136 222.801176 27.428136 C 226.113676 27.428136 228.176177 28.068761 228.999093 29.344802 C 229.618885 30.219803 229.926177 31.131261 229.926177 32.073969 C 230.19701 31.683344 230.592843 31.209386 231.118885 30.657303 C 231.644927 30.105219 232.75951 29.365636 234.467844 28.438552 C 236.176177 27.495844 237.676177 27.027094 238.967844 27.027094 C 240.259511 27.027094 241.342844 27.094802 242.217844 27.230219 C 243.103261 27.360427 244.072011 27.600011 245.124094 27.933344 Z M 293.160556 44.016678 C 293.160556 47.407304 292.316806 49.917721 290.634514 51.547929 C 288.952222 53.162512 287.092847 53.969804 285.045972 53.969804 L 265.452221 53.969804 C 265.452221 55.516679 266.358471 56.813554 268.176179 57.860429 C 270.004304 58.912513 271.827221 59.438554 273.64493 59.438554 C 276.848055 59.438554 279.353263 59.100013 281.170972 58.428138 L 282.077222 58.105221 C 283.400138 57.501054 284.499097 57.198971 285.389722 57.198971 C 287.150139 57.198971 288.665764 58.433346 289.931389 60.907305 C 290.644931 62.402096 290.999097 63.67293 290.999097 64.725013 C 290.999097 69.620847 285.134514 72.068764 273.400138 72.068764 C 269.327221 72.068764 265.702221 71.370847 262.525137 69.969805 C 259.363679 68.558347 256.894928 66.693763 255.118887 64.381263 C 251.644928 59.928138 249.910553 54.943762 249.910553 49.428137 C 249.910553 42.485428 252.160553 36.933345 256.650137 32.777094 C 261.144929 28.605219 266.754304 26.521886 273.483471 26.521886 C 281.139722 26.521886 286.754305 29.225011 290.332431 34.636469 C 292.217847 37.501053 293.160556 40.626053 293.160556 44.016678 Z M 275.702221 46.438554 C 277.80118 46.438554 278.853263 45.558345 278.853263 43.797928 C 278.853263 42.532303 278.368888 41.516678 277.400138 40.751053 C 276.441805 39.98022 275.061596 39.600011 273.259513 39.600011 C 271.473054 39.600011 269.697013 40.334387 267.931387 41.797928 C 266.170971 43.251053 265.290762 44.797928 265.290762 46.438554 Z M 275.702221 46.438554 " stroke="#f49e9a" stroke-width="6.200003" stroke-opacity="1" stroke-miterlimit="4"/><g fill="#2e6699" fill-opacity="1"><g transform="translate(192.496779, 233.225771)"><g><path d="M 12.703125 -16.328125 C 12.703125 -14.578125 13.28125 -13.210938 14.4375 -12.234375 C 15.601562 -11.265625 16.835938 -10.78125 18.140625 -10.78125 C 19.441406 -10.78125 20.660156 -11.160156 21.796875 -11.921875 C 22.929688 -12.691406 23.847656 -13.078125 24.546875 -13.078125 C 25.785156 -13.078125 27.296875 -11.984375 29.078125 -9.796875 C 30.023438 -8.597656 30.5 -7.523438 30.5 -6.578125 C 30.5 -5.003906 29.363281 -3.535156 27.09375 -2.171875 C 24.738281 -0.515625 21.84375 0.3125 18.40625 0.3125 C 14.5625 0.3125 10.863281 -1.070312 7.3125 -3.84375 C 5.625 -5.164062 4.238281 -6.929688 3.15625 -9.140625 C 2.082031 -11.359375 1.546875 -13.796875 1.546875 -16.453125 C 1.546875 -19.117188 2.082031 -21.535156 3.15625 -23.703125 C 4.238281 -25.878906 5.625 -27.628906 7.3125 -28.953125 C 10.75 -31.679688 14.410156 -33.046875 18.296875 -33.046875 C 19.859375 -33.046875 21.382812 -32.828125 22.875 -32.390625 C 24.363281 -31.960938 25.457031 -31.539062 26.15625 -31.125 L 27.15625 -30.5 C 27.894531 -30.007812 28.472656 -29.617188 28.890625 -29.328125 C 29.960938 -28.503906 30.5 -27.5625 30.5 -26.5 C 30.5 -25.445312 30.066406 -24.257812 29.203125 -22.9375 C 27.710938 -20.664062 26.285156 -19.53125 24.921875 -19.53125 C 24.140625 -19.53125 23.023438 -19.984375 21.578125 -20.890625 C 20.828125 -21.597656 19.757812 -21.953125 18.375 -21.953125 C 17 -21.953125 15.707031 -21.453125 14.5 -20.453125 C 13.300781 -19.460938 12.703125 -18.085938 12.703125 -16.328125 Z M 12.703125 -16.328125 "/></g></g></g><g fill="#2e6699" fill-opacity="1"><g transform="translate(222.9347, 233.225771)"><g><path d="M 23.6875 -29.203125 C 23.9375 -31.515625 25.566406 -32.671875 28.578125 -32.671875 C 30.191406 -32.671875 31.390625 -32.546875 32.171875 -32.296875 C 32.960938 -32.054688 33.507812 -31.625 33.8125 -31 C 34.125 -30.375 34.3125 -29.820312 34.375 -29.34375 C 34.4375 -28.875 34.46875 -28.164062 34.46875 -27.21875 L 34.46875 -5.515625 C 34.46875 -4.566406 34.4375 -3.851562 34.375 -3.375 C 34.3125 -2.90625 34.140625 -2.359375 33.859375 -1.734375 C 33.273438 -0.660156 31.851562 -0.125 29.59375 -0.125 C 27.34375 -0.125 25.835938 -0.398438 25.078125 -0.953125 C 24.316406 -1.515625 23.875 -2.332031 23.75 -3.40625 C 22.21875 -1.21875 19.660156 -0.125 16.078125 -0.125 C 12.503906 -0.125 9.1875 -1.753906 6.125 -5.015625 C 3.070312 -8.285156 1.546875 -12.078125 1.546875 -16.390625 C 1.546875 -20.710938 3.082031 -24.492188 6.15625 -27.734375 C 9.238281 -30.984375 12.625 -32.609375 16.3125 -32.609375 C 17.707031 -32.609375 18.984375 -32.359375 20.140625 -31.859375 C 21.304688 -31.367188 22.113281 -30.90625 22.5625 -30.46875 C 23.019531 -30.039062 23.394531 -29.617188 23.6875 -29.203125 Z M 12.40625 -16.3125 C 12.40625 -14.945312 12.941406 -13.710938 14.015625 -12.609375 C 15.085938 -11.515625 16.390625 -10.96875 17.921875 -10.96875 C 19.453125 -10.96875 20.722656 -11.523438 21.734375 -12.640625 C 22.742188 -13.765625 23.25 -15 23.25 -16.34375 C 23.25 -17.6875 22.765625 -18.9375 21.796875 -20.09375 C 20.828125 -21.25 19.523438 -21.828125 17.890625 -21.828125 C 16.253906 -21.828125 14.929688 -21.25 13.921875 -20.09375 C 12.910156 -18.9375 12.40625 -17.675781 12.40625 -16.3125 Z M 12.40625 -16.3125 "/></g></g></g><g fill="#2e6699" fill-opacity="1"><g transform="translate(258.269993, 233.225771)"><g><path d="M 24.671875 -32.296875 C 25.460938 -32.054688 26.113281 -31.632812 26.625 -31.03125 C 27.144531 -30.425781 27.40625 -29.460938 27.40625 -28.140625 C 27.40625 -26.816406 27.007812 -25.367188 26.21875 -23.796875 C 25.4375 -22.234375 24.300781 -21.453125 22.8125 -21.453125 C 22.070312 -21.453125 21.359375 -21.613281 20.671875 -21.9375 C 19.992188 -22.269531 19.097656 -22.4375 17.984375 -22.4375 C 16.867188 -22.4375 15.820312 -22.046875 14.84375 -21.265625 C 13.875 -20.484375 13.390625 -19.53125 13.390625 -18.40625 L 13.390625 -5.390625 C 13.390625 -4.441406 13.359375 -3.726562 13.296875 -3.25 C 13.234375 -2.78125 13.035156 -2.234375 12.703125 -1.609375 C 12.085938 -0.535156 10.476562 0 7.875 0 C 5.882812 0 4.457031 -0.347656 3.59375 -1.046875 C 2.9375 -1.628906 2.566406 -2.519531 2.484375 -3.71875 C 2.484375 -4.132812 2.484375 -4.734375 2.484375 -5.515625 L 2.484375 -27.28125 C 2.484375 -28.226562 2.515625 -28.9375 2.578125 -29.40625 C 2.640625 -29.882812 2.8125 -30.414062 3.09375 -31 C 3.675781 -32.113281 5.289062 -32.671875 7.9375 -32.671875 C 10.414062 -32.671875 11.96875 -32.195312 12.59375 -31.25 C 13.039062 -30.582031 13.265625 -29.898438 13.265625 -29.203125 C 13.472656 -29.492188 13.769531 -29.84375 14.15625 -30.25 C 14.550781 -30.664062 15.390625 -31.222656 16.671875 -31.921875 C 17.953125 -32.628906 19.078125 -32.984375 20.046875 -32.984375 C 21.023438 -32.984375 21.84375 -32.929688 22.5 -32.828125 C 23.164062 -32.722656 23.890625 -32.546875 24.671875 -32.296875 Z M 24.671875 -32.296875 "/></g></g></g><g fill="#2e6699" fill-opacity="1"><g transform="translate(284.988393, 233.225771)"><g><path d="M 33.96875 -20.25 C 33.96875 -17.707031 33.335938 -15.820312 32.078125 -14.59375 C 30.816406 -13.375 29.425781 -12.765625 27.90625 -12.765625 L 13.203125 -12.765625 C 13.203125 -11.609375 13.882812 -10.640625 15.25 -9.859375 C 16.613281 -9.078125 17.976562 -8.6875 19.34375 -8.6875 C 21.738281 -8.6875 23.617188 -8.929688 24.984375 -9.421875 L 25.671875 -9.671875 C 26.660156 -10.128906 27.484375 -10.359375 28.140625 -10.359375 C 29.460938 -10.359375 30.601562 -9.425781 31.5625 -7.5625 C 32.09375 -6.445312 32.359375 -5.5 32.359375 -4.71875 C 32.359375 -1.03125 27.957031 0.8125 19.15625 0.8125 C 16.09375 0.8125 13.375 0.285156 11 -0.765625 C 8.625 -1.828125 6.773438 -3.222656 5.453125 -4.953125 C 2.847656 -8.304688 1.546875 -12.050781 1.546875 -16.1875 C 1.546875 -21.394531 3.226562 -25.554688 6.59375 -28.671875 C 9.96875 -31.796875 14.175781 -33.359375 19.21875 -33.359375 C 24.96875 -33.359375 29.1875 -31.332031 31.875 -27.28125 C 33.269531 -25.132812 33.96875 -22.789062 33.96875 -20.25 Z M 20.890625 -18.40625 C 22.460938 -18.40625 23.25 -19.066406 23.25 -20.390625 C 23.25 -21.347656 22.882812 -22.113281 22.15625 -22.6875 C 21.4375 -23.269531 20.40625 -23.5625 19.0625 -23.5625 C 17.71875 -23.5625 16.382812 -23.015625 15.0625 -21.921875 C 13.738281 -20.828125 13.078125 -19.65625 13.078125 -18.40625 Z M 20.890625 -18.40625 "/></g></g></g></svg>